<?xml version="1.0" encoding="UTF-8" standalone="no"?>
<svg width="40px" height="52px" viewBox="0 0 40 52" version="1.1" xmlns="http://www.w3.org/2000/svg" xmlns:xlink="http://www.w3.org/1999/xlink">
    <!-- Generator: Sketch 39.1 (31720) - http://www.bohemiancoding.com/sketch -->
    <title>adminoid/header/full/logo/man</title>
    <desc>Created with Sketch.</desc>
    <defs></defs>
    <g id="Symbols" stroke="none" stroke-width="1" fill="none" fill-rule="evenodd">
        <g id="adminoid/header/full/logo/man" fill="#CD2E41">
            <g id="man-full">
                <rect id="foots" x="0" y="49" width="40" height="3" rx="1.5"></rect>
                <path d="M0,25.5 C0,24.6715729 0.665435791,24 1.5032506,24 L20,24 L38.4967494,24 C39.3269718,24 40,24.6657972 40,25.5 L40,25.5 C40,26.3284271 39.3345642,27 38.4967494,27 L20,27 L1.5032506,27 C0.673028218,27 0,26.3342028 0,25.5 L0,25.5 Z" id="hands"></path>
                <path d="M19,14 L18.7619048,14 L7,52 L33,52 L21.2380952,14 L21,14 C21,13.4477153 20.5522847,13 20,13 C19.4477153,13 19,13.4477153 19,14 Z" id="body"></path>
                <circle id="head" cx="20" cy="5" r="5"></circle>
            </g>
        </g>
    </g>
</svg>