<?xml version="1.0" encoding="UTF-8" standalone="no"?>
<svg width="121px" height="74px" viewBox="0 0 121 74" version="1.1" xmlns="http://www.w3.org/2000/svg" xmlns:xlink="http://www.w3.org/1999/xlink">
    <!-- Generator: Sketch 39.1 (31720) - http://www.bohemiancoding.com/sketch -->
    <title>Combined Shape</title>
    <desc>Created with Sketch.</desc>
    <defs>
        <path d="M76,18.5263156 L76,0 L0,0 L0,74 L76,74 L76,56.4736844 C80.7755491,61.1307446 87.3026993,64 94.5,64 C109.135546,64 121,52.1355459 121,37.5 C121,22.8644541 109.135546,11 94.5,11 C87.3026993,11 80.7755491,13.8692554 76,18.5263156 Z M76,18.5263156 L76,56.4736844 C71.0645795,51.6607195 68,44.9382452 68,37.5 C68,30.0617548 71.0645795,23.3392805 76,18.5263156 Z" id="path-1"></path>
        <mask id="mask-2" maskContentUnits="userSpaceOnUse" maskUnits="objectBoundingBox" x="0" y="0" width="121" height="74" fill="white">
            <use xlink:href="#path-1"></use>
        </mask>
    </defs>
    <g id="Work" stroke="none" stroke-width="1" fill="none" fill-rule="evenodd">
        <g id="Elements-sketches" transform="translate(-2264.000000, -1021.000000)" stroke="#979797" stroke-width="2" fill="#D8D8D8">
            <g id="Group-2" transform="translate(2264.000000, 1021.000000)">
                <use id="Combined-Shape" mask="url(#mask-2)" xlink:href="#path-1"></use>
            </g>
        </g>
    </g>
</svg>